<?xml version="1.0" encoding="UTF-8"?>
<svg xmlns="http://www.w3.org/2000/svg" xmlns:xlink="http://www.w3.org/1999/xlink" version="1.1" id="Layer_1" x="0px" y="0px" width="100%" viewBox="0 0 336 242" enable-background="new 0 0 336 242" xml:space="preserve" style="background: transparent;">

<path fill="#E95F25" opacity="1.000000" stroke="none" d=" M44.803696,111.509018   C40.117489,110.769493 38.699703,108.004974 38.706818,103.987251   C38.745468,82.161087 38.684616,60.334686 38.755569,38.508686   C38.774632,32.644711 40.685528,30.859701 46.685184,30.855885   C91.004089,30.827686 135.323013,30.827869 179.641922,30.854399   C185.873032,30.858130 187.822449,32.911739 187.832504,39.397362   C187.865082,60.390484 187.854523,81.383698 187.839615,102.376862   C187.834412,109.696075 185.991592,111.567116 178.686020,111.568314   C134.200592,111.575592 89.715164,111.559212 44.803696,111.509018  z"/>
<path fill="#E95F24" opacity="1.000000" stroke="none" d=" M188.999969,204.843033   C166.678162,204.843018 144.856354,204.848846 123.034538,204.840103   C114.875046,204.836823 113.159981,203.088333 113.158165,194.817459   C113.153625,174.161697 113.147354,153.505951 113.161888,132.850189   C113.166771,125.910080 115.079277,124.004692 122.028236,124.003418   C165.838440,123.995361 209.648636,123.996101 253.458832,124.002525   C260.691376,124.003593 262.147797,125.474014 262.153107,132.835724   C262.168213,153.824646 262.166779,174.813553 262.153870,195.802475   C262.149384,203.116898 260.430115,204.826767 252.966354,204.834915   C231.810928,204.858032 210.655441,204.843048 188.999969,204.843033  z"/>
<path fill="#E95F24" opacity="1.000000" stroke="none" d=" M237.999741,30.840538   C243.825912,30.840715 249.152679,30.793976 254.478241,30.854038   C260.067871,30.917078 262.127441,32.842567 262.138916,38.249870   C262.185455,60.220535 262.184387,82.191406 262.139160,104.162079   C262.128571,109.308426 260.056427,111.505943 254.872955,111.533882   C237.063843,111.629898 219.253616,111.626350 201.444427,111.538658   C196.002243,111.511864 194.021164,109.347610 194.012695,103.813133   C193.979279,82.008865 193.980789,60.204491 194.011795,38.400219   C194.019562,32.930862 195.994339,30.906040 201.547867,30.868359   C213.531357,30.787048 225.515778,30.841606 237.999741,30.840538  z"/>
<path fill="#E95F24" opacity="1.000000" stroke="none" d=" M84.997360,204.842178   C72.345299,204.842163 60.192616,204.856995 48.039986,204.836670   C40.621674,204.824265 38.744541,203.035995 38.735344,195.847412   C38.708511,174.871613 38.709892,153.895767 38.734596,132.919968   C38.743069,125.727875 40.449711,124.010620 47.468948,124.004669   C64.449364,123.990265 81.429810,123.990005 98.410225,124.004913   C105.145180,124.010826 106.985413,125.826775 106.992157,132.554565   C107.013359,153.696838 107.009483,174.839142 106.994522,195.981445   C106.989761,202.713089 104.874260,204.779449 97.982300,204.835892   C93.820717,204.869980 89.658623,204.842178 84.997360,204.842178  z"/>
</svg>