<?xml version="1.0" encoding="UTF-8"?>
<svg xmlns="http://www.w3.org/2000/svg" xmlns:xlink="http://www.w3.org/1999/xlink" version="1.1" id="Layer_1" x="0px" y="0px" width="100%" viewBox="0 0 345 242" enable-background="new 0 0 345 242" xml:space="preserve" style="background: transparent;">

<path fill="#E96026" opacity="1.000000" stroke="none" d=" M201.000061,23.262848   C227.662109,23.262861 253.824158,23.256142 279.986206,23.266705   C287.999786,23.269939 289.732819,24.982252 289.733856,32.892147   C289.740479,84.549698 289.739563,136.207245 289.734802,187.864792   C289.734100,195.639496 288.204224,197.163788 280.401733,197.164185   C203.748596,197.168060 127.095467,197.167694 50.442333,197.164734   C42.749409,197.164444 41.155731,195.570160 41.154415,187.775146   C41.145718,136.284241 41.148663,84.793320 41.151154,33.302410   C41.151554,25.029472 42.877022,23.266386 51.026203,23.265482   C100.850815,23.259960 150.675430,23.262745 201.000061,23.262848  M142.500000,35.936172   C116.018448,35.936176 89.536903,35.934372 63.055351,35.937283   C55.079323,35.938156 53.749264,37.227039 53.743881,45.190006   C53.725651,72.171242 53.734444,99.152489 53.744370,126.133736   C53.744858,127.463181 53.367901,129.135574 54.013699,130.050262   C55.337494,131.925278 57.037548,134.415115 58.946564,134.787750   C61.730690,135.331223 66.380310,135.315475 67.546165,133.652878   C73.860313,124.648407 79.430397,115.113472 85.080833,105.656151   C87.689171,101.290482 89.910202,96.692497 92.283890,92.187767   C96.696716,83.813210 108.789284,83.183754 113.733742,91.209511   C116.406189,95.547379 118.607559,100.173080 121.097717,104.626282   C123.825211,109.503906 126.501305,114.419312 129.457993,119.157112   C132.248520,123.628654 135.257797,127.978500 138.422485,132.192917   C139.401505,133.496674 141.169891,134.950928 142.636765,135.017548   C149.285095,135.319397 155.962143,135.318344 162.611694,135.030151   C164.261414,134.958664 166.328476,133.795380 167.390152,132.478195   C184.409149,111.363701 214.088028,111.151154 231.550186,131.972565   C232.899261,133.581177 235.503738,134.948441 237.566879,135.009766   C247.883911,135.316528 258.215088,135.178345 268.541138,135.139984   C275.488983,135.114182 277.139679,133.482986 277.143677,126.669846   C277.159637,99.355515 277.156189,72.041161 277.146362,44.726814   C277.143738,37.461071 275.630524,35.940735 268.413177,35.939545   C226.775452,35.932663 185.137726,35.936165 142.500000,35.936172  z"/>
<path fill="#FFFFFE" opacity="1.000000" stroke="none" d=" M143.000000,35.936161   C185.137726,35.936165 226.775452,35.932663 268.413177,35.939545   C275.630524,35.940735 277.143738,37.461071 277.146362,44.726814   C277.156189,72.041161 277.159637,99.355515 277.143677,126.669846   C277.139679,133.482986 275.488983,135.114182 268.541138,135.139984   C258.215088,135.178345 247.883911,135.316528 237.566879,135.009766   C235.503738,134.948441 232.899261,133.581177 231.550186,131.972565   C214.088028,111.151154 184.409149,111.363701 167.390152,132.478195   C166.328476,133.795380 164.261414,134.958664 162.611694,135.030151   C155.962143,135.318344 149.285095,135.319397 142.636765,135.017548   C141.169891,134.950928 139.401505,133.496674 138.422485,132.192917   C135.257797,127.978500 132.248520,123.628654 129.457993,119.157112   C126.501305,114.419312 123.825211,109.503906 121.097717,104.626282   C118.607559,100.173080 116.406189,95.547379 113.733742,91.209511   C108.789284,83.183754 96.696716,83.813210 92.283890,92.187767   C89.910202,96.692497 87.689171,101.290482 85.080833,105.656151   C79.430397,115.113472 73.860313,124.648407 67.546165,133.652878   C66.380310,135.315475 61.730690,135.331223 58.946564,134.787750   C57.037548,134.415115 55.337494,131.925278 54.013699,130.050262   C53.367901,129.135574 53.744858,127.463181 53.744370,126.133736   C53.734444,99.152489 53.725651,72.171242 53.743881,45.190006   C53.749264,37.227039 55.079323,35.938156 63.055351,35.937283   C89.536903,35.934372 116.018448,35.936176 143.000000,35.936161  M252.169754,63.163971   C252.203293,61.999821 252.307755,60.832684 252.258820,59.672012   C251.945435,52.236645 247.326950,45.671555 240.478592,43.236122   C233.055679,40.596375 226.169510,41.891109 220.676208,47.486416   C215.260635,53.002556 213.542053,59.773586 216.378387,67.252350   C219.385788,75.182213 226.415085,79.553833 235.209427,79.128410   C243.503159,78.727219 249.535599,73.322716 252.169754,63.163971  z"/>
<path fill="#E96026" opacity="1.000000" stroke="none" d=" M252.117508,63.595573   C249.535599,73.322716 243.503159,78.727219 235.209427,79.128410   C226.415085,79.553833 219.385788,75.182213 216.378387,67.252350   C213.542053,59.773586 215.260635,53.002556 220.676208,47.486416   C226.169510,41.891109 233.055679,40.596375 240.478592,43.236122   C247.326950,45.671555 251.945435,52.236645 252.258820,59.672012   C252.307755,60.832684 252.203293,61.999821 252.117508,63.595573  z"/>
</svg>