<?xml version="1.0" encoding="UTF-8"?>
<svg xmlns="http://www.w3.org/2000/svg" xmlns:xlink="http://www.w3.org/1999/xlink" version="1.1" id="Layer_1" x="0px" y="0px" width="100%" viewBox="0 0 236 242" enable-background="new 0 0 236 242" xml:space="preserve" style="background: transparent;">

<path fill="#E96026" opacity="1.000000" stroke="none" d=" M47.264896,44.001728   C47.264980,38.192490 47.264980,32.882824 47.264980,27.149063   C94.153244,27.149063 140.698425,27.149063 187.659790,27.149063   C187.659790,39.781002 187.659790,52.649689 187.659790,65.843781   C183.141418,65.843781 178.563293,65.843781 173.511246,65.843781   C172.384277,58.744591 171.102844,51.586048 170.160858,44.383114   C169.627472,40.304478 167.795364,38.698029 163.608826,38.777943   C152.669159,38.986767 141.722885,38.848297 130.280334,38.848297   C130.280334,41.050941 130.280334,42.676350 130.280334,44.301762   C130.280319,86.953911 130.278381,129.606064 130.282028,172.258209   C130.282730,180.441299 131.447357,181.597900 139.849365,181.954391   C143.481430,182.108490 147.110916,182.323532 150.996323,182.524033   C150.996323,186.086487 150.996323,189.198380 150.996323,192.741455   C128.899292,192.741455 106.723053,192.741455 84.304626,192.741455   C84.304626,189.534225 84.304626,186.426422 84.304626,182.625214   C89.052177,182.352158 93.802460,182.093491 98.550697,181.801575   C102.892395,181.534622 105.189537,179.495056 105.183464,174.850861   C105.125351,130.366104 105.145302,85.881233 105.132484,41.396404   C105.132301,40.755756 104.999283,40.115150 104.866165,38.914364   C92.855804,38.914364 80.919464,38.734562 69.004272,39.154766   C67.603790,39.204155 65.528801,42.394245 65.124771,44.401752   C63.717636,51.393406 62.907833,58.505276 61.828999,65.857254   C57.132664,65.857254 52.534767,65.857254 47.264812,65.857254   C47.264812,58.723598 47.264812,51.612446 47.264896,44.001728  z"/>
</svg>