<?xml version="1.0" encoding="UTF-8"?>
<svg xmlns="http://www.w3.org/2000/svg" xmlns:xlink="http://www.w3.org/1999/xlink" version="1.1" id="Layer_1" x="0px" y="0px" width="100%" viewBox="0 0 229 223" enable-background="new 0 0 229 223" xml:space="preserve" style="background: transparent;">

<path fill="#E95F24" opacity="1.000000" stroke="none" d=" M108.467987,24.276714   C154.814728,21.830042 192.061829,49.857357 201.509506,93.891937   C211.928177,142.452194 176.632401,191.502686 127.228592,197.119934   C79.468155,202.550339 37.535191,170.864929 30.180519,123.788429   C22.770575,76.358131 56.949280,30.898731 104.553459,24.862089   C105.709740,24.715464 106.858223,24.507431 108.467987,24.276714  M85.155167,141.203033   C85.372482,153.693680 94.723656,159.172485 105.433342,153.019623   C123.151703,142.840179 140.864090,132.649689 158.525299,122.371605   C168.424942,116.610435 168.572845,105.442650 158.785843,99.724442   C141.004517,89.335411 123.170937,79.034233 105.284538,68.827148   C94.513214,62.680355 85.169334,68.337135 85.159348,80.863358   C85.143562,100.664886 85.155205,120.466438 85.155167,141.203033  z"/>
<path fill="#FFFEFD" opacity="1.000000" stroke="none" d=" M85.155197,140.735504   C85.155205,120.466438 85.143562,100.664886 85.159348,80.863358   C85.169334,68.337135 94.513214,62.680355 105.284538,68.827148   C123.170937,79.034233 141.004517,89.335411 158.785843,99.724442   C168.572845,105.442650 168.424942,116.610435 158.525299,122.371605   C140.864090,132.649689 123.151703,142.840179 105.433342,153.019623   C94.723656,159.172485 85.372482,153.693680 85.155197,140.735504  z"/>
</svg>